<svg id="Capa_1" data-name="Capa 1" xmlns="http://www.w3.org/2000/svg" viewBox="0 0 1080 1080"><defs><style>.cls-1{fill:#ffc700;}</style></defs><title>logo-color</title><path class="cls-1" d="M591.94,388.2c-.38-2.33-.87-4.74-1.47-7.16h0c-6.26-25.19-24.72-46.44-54.86-63.15-35.92-20.07-80.05-33.07-131.19-38.66,1.16-19.71,2.61-39.62,4.3-59.27,22.22-7,44.45-13.29,66.07-18.67l52.83-12.85c43.13-10.72,63.42-26.35,60.26-46.65l-.48-1.93c-3.07-12.36-14.92-18.5-35.93-18.51q-17.18,0-42.61,5.48c-22.81,4.89-45.5,10.14-67.47,15.6-65.12,16.4-97.68,34.22-99.52,54.46C335.26,265,333.23,305.26,335.7,320l.34,1.38c3,12.19,18.74,19.74,48,23.1,69.65,7.94,114.33,24.81,132.88,50.2a28.79,28.79,0,0,1,5.43,10.88,19.81,19.81,0,0,1,.43,2.91c1.32,8.25-2,18.88-9.78,31.6s-30,28.76-65.86,47.29a286,286,0,0,1-37.62,16c-42.16,14.35-61.17,30.62-58.07,49.93l.62,2.48a21.08,21.08,0,0,0,8.31,12.54,27.7,27.7,0,0,0,9.71,4.21l.94.23a52.15,52.15,0,0,0,10.73,1l1.37,0c8-.14,17.44-1.56,28.35-4.28,14.65-3.63,31-9.59,49-17.76q5.61-2.55,11.44-5.41,5.18-2.54,10.51-5.3c3.5-1.82,7-3.69,10.64-5.65,55.29-30.09,88.05-67.86,97.36-112.26C593.11,410.74,593.63,399,591.94,388.2Z"/><path d="M764.68,635.36c-.08-.36-.15-.71-.24-1.06Q755.21,595,736,564a134,134,0,0,0-22.77-28c-5.67-.18-11.34-.61-16.94-1.3-18.09-2.24-34.26-8.21-48.27-17.77a93.33,93.33,0,0,0-19.25,8.52Q596.43,544,574.93,586.3a162.92,162.92,0,0,0-12.67,40.54h0l0,.22a194.32,194.32,0,0,0-2.84,28.15q-.12,4.23-.1,8.46c-.33,19.46,1.23,43.52,8.47,64.13l0,.08c.21.83.42,1.65.64,2.48q10.2,37.15,29.86,65.46t46.59,39.88a135.44,135.44,0,0,0,30.39,3.77q21.91,0,38.54-9.1,27.3-15,41.51-46.33t16.28-70.9q.35-6.64.37-13.3A280.61,280.61,0,0,0,764.68,635.36Zm-43,79.87q-1,33.18-11.73,54.46-13.23,23.67-26.7,25.07a23.26,23.26,0,0,1-2.35.12q-12.2,0-23.39-13.27-12.26-14.54-21.76-38.7a291.05,291.05,0,0,1-14.8-51.59A250.66,250.66,0,0,1,616,639.74q.38-24.12,8.26-38.68,12.93-21.94,28.33-21.95a20.74,20.74,0,0,1,2.6.16q16.92,2,32.7,22.68t26.34,52.89Q722.64,682.05,721.63,715.23Z"/><path class="cls-1" d="M881.89,371.35l0-.12c-.38-2.21-.87-4.53-1.46-6.91-4-16.17-13.32-30.23-27.65-41.77a210,210,0,0,0-43.82-26.74L800.7,292l5.58-7.14A194.2,194.2,0,0,0,837.16,228l.39-1.22a123.43,123.43,0,0,0,5.76-30A127.4,127.4,0,0,0,842,168.91c-.39-2.26-.84-4.46-1.34-6.45a76.61,76.61,0,0,0-21.86-37.22c-17.53-16.31-39-24.63-63.76-24.63A138.14,138.14,0,0,0,721.94,105c-3.81,1-7.72,2.09-11.62,3.38a134,134,0,0,0-31.16,14.91,121.67,121.67,0,0,0-35.77,36.17C631,178.58,626.83,201.76,631,228.34c.57,3,1.21,5.95,1.9,8.71a82.09,82.09,0,0,0,23.57,40.79,188.77,188.77,0,0,0,46.59,31.57L712.5,314l-7.65,7.15a590.17,590.17,0,0,0-55.51,59.12C629.76,405,621.87,430.72,626,456.76c.51,2.81,1.1,5.55,1.75,8.14,3.2,12.89,9.32,23.65,18.19,32a88.84,88.84,0,0,0,28.55,17.69A98.93,98.93,0,0,0,689,518.85c3,.63,6,1.16,9.13,1.54a173.59,173.59,0,0,0,63.13-4c59.62-14.82,98.2-47.28,114.66-96.46C882,401.4,884,385,881.89,371.35ZM710.76,251.12c-14.55-9.09-23.75-21-27.32-35.34a43.06,43.06,0,0,1-.93-5c-1.78-11.62.4-22,6.46-31,8-11.89,21.06-20.17,38.8-24.58A73.5,73.5,0,0,1,745.43,153h0a58.58,58.58,0,0,1,19.83,3.37c12.13,4.35,19.63,12,22.3,22.79l.64,2.63c4,26.72-6.78,55.69-32.12,86.12L752.71,272l-4.88-2A247.35,247.35,0,0,1,710.76,251.12ZM819.29,421.47l0,.07c-14.38,22.81-36.3,38-65.17,45.2a115.37,115.37,0,0,1-27.71,3.5c-2.13,0-4.28-.07-6.39-.2-23-1.6-36.51-9.92-40.2-24.75l-.56-2.35c-1.83-11.79,3.25-34.51,68.24-95.57q5.09-4.64,9.89-9.45l3.33-3.33,4.38,1.74A225.34,225.34,0,0,1,804,355.76c13,8.33,21,18.17,23.74,29.22l.78,3.25C829.86,398.15,826.77,409.34,819.29,421.47Z"/><path d="M357.45,958.66c-2.35-.16-3.68.52-4,2.06s.19,3.64,1.49,6.31a50.65,50.65,0,0,0,5.6,8.74,90.57,90.57,0,0,0,8.22,9.2A26.55,26.55,0,0,1,356,981.32a30.68,30.68,0,0,1-9.05-8.15,32.4,32.4,0,0,1-5-9.62,17,17,0,0,1-.77-8.08c.44-2.19,1.71-3.57,3.36-3.66,2.25-.13,5.41,0,8.81-.22a38.73,38.73,0,0,0,9.46-1.78c2.9-1,4.89-2.51,5.79-4.52a11.21,11.21,0,0,0,.32-7.19,17.06,17.06,0,0,0-4.5-7.68,22.41,22.41,0,0,0-9.8-5.91c-2.28-.65-4.87.6-7.21,3.4A43.39,43.39,0,0,0,341,939.19,101.85,101.85,0,0,0,336.15,954a82.92,82.92,0,0,0-2.32,13.92q-.42,6.18.94,8.57c-4.69-1-7.88-3.21-9.53-6.63a22,22,0,0,1-1.6-12.27,63.82,63.82,0,0,1,3.69-14.68,125.81,125.81,0,0,1,6.25-14.06,101.65,101.65,0,0,1,6.13-10.43,9.51,9.51,0,0,1,5.07-4,14.29,14.29,0,0,1,6.49-.15A43.83,43.83,0,0,1,364.81,919a38.2,38.2,0,0,1,10.57,8.4,26.68,26.68,0,0,1,5.21,8.48,16.28,16.28,0,0,1,.86,7.8,18,18,0,0,1-3.14,7.85,16.87,16.87,0,0,1-7.68,5.72C367.21,958.61,362.82,959.11,357.45,958.66Z"/><path d="M413.32,993.94a13.45,13.45,0,0,1-4.9-5.69,22.3,22.3,0,0,1-2-7.36c-.39-4.93.55-9,2.73-12.21a20.55,20.55,0,0,1,8.36-7.2A24.53,24.53,0,0,1,427.54,959a13.06,13.06,0,0,1,8.15,2.16c2.09,1.51,3,3.91,2.52,7a14.08,14.08,0,0,1-3.78,8.11A14.33,14.33,0,0,1,428,980a23.72,23.72,0,0,1-6.75.84,42.25,42.25,0,0,1-4.81-.36c-.62-.1-.95-.11-1,0,.16,2.65,1.15,4.51,3,5.55a11.41,11.41,0,0,0,6.37,1.38,21.29,21.29,0,0,0,6.56-1.33,55,55,0,0,0,8.65-4.41c2.72-1.71,4.89-3.16,6.54-4.35l.36-.26c1.28-.84,2.09-.82,2.43,0s-.32,2.58-2,5.09a55,55,0,0,1-5.7,7,30.16,30.16,0,0,1-7.49,5.71,19.82,19.82,0,0,1-9.44,2.34A22.23,22.23,0,0,1,413.32,993.94Zm12.44-19.88c2.72-1.49,4.08-2.72,4.13-3.66s-.73-1.45-2.32-1.56a11.85,11.85,0,0,0-5.71,1.46,17,17,0,0,0-6.14,5.43,10.34,10.34,0,0,0,5.36,0A19.69,19.69,0,0,0,425.76,974.06Z"/><path d="M492,978.52a4.32,4.32,0,0,0-4.41-2.25,9.41,9.41,0,0,0-5.47,2.41,7.07,7.07,0,0,0-2.59,5.52c0,2.24,1.47,4.65,4.56,7.18a24.31,24.31,0,0,0,9.74.17c3.38-.6,8.13-3.36,14.05-8.37q1.06-.7,1.11,1.17c0,1.26-.63,3.14-2,5.65a14.8,14.8,0,0,1-6.18,6,27.94,27.94,0,0,1-11.11,2.7,5.56,5.56,0,0,1,0,5.14,9.29,9.29,0,0,1-4.74,4.32,20,20,0,0,1-7.79,1.76,18,18,0,0,1-8-1.41c-3.29-1.48-5.11-3.5-5.38-5.73s.63-4.3,2.63-6.22a16.65,16.65,0,0,1,8.43-4,16.83,16.83,0,0,1-4.05-4.91,12.56,12.56,0,0,1-.82-9,13.18,13.18,0,0,1,5.85-7.65,24.42,24.42,0,0,1,9.85-3.64,16.86,16.86,0,0,1,8.86.74,5.35,5.35,0,0,1,3.63,5.46,12.13,12.13,0,0,1-1.06,3.65,6.16,6.16,0,0,1-2.26,3C493.85,980.74,492.93,980.16,492,978.52ZM479,998.94a19.75,19.75,0,0,0-6.63.91c-2,.66-2.93,1.42-2.75,2.29a2.94,2.94,0,0,0,2,2,6.48,6.48,0,0,0,4.16.08,5.94,5.94,0,0,0,3.38-2.18A2.28,2.28,0,0,0,479,998.94Z"/><path d="M532,960.93c.62-.53,1.27-4,2.35-6.66a37.71,37.71,0,0,1,3.92-7.18,9.28,9.28,0,0,1,5-4c1.82-.48,3.75.49,5.84,2.92a10.53,10.53,0,0,1,1.88,5.41,37.88,37.88,0,0,1-.09,8c4-.24,7.2-.39,9.75-.41s3.92.08,4.1.34a3.41,3.41,0,0,1-1,4.22,14,14,0,0,1-5.82,2.46,49.55,49.55,0,0,1-8.28,1,75.46,75.46,0,0,1-4,13.64,27,27,0,0,1-6.44,9.56q1.4,6.13,4.48,7.93a8.36,8.36,0,0,0,7,.55,26.06,26.06,0,0,0,7.85-4.22,63.7,63.7,0,0,0,7.15-6.3c2.14-2.2,3.83-4.11,5.08-5.55,1-1.18,1.76-1.25,2.08-.2s0,3.18-1.21,6.2a42.9,42.9,0,0,1-4.87,8.8,40.79,40.79,0,0,1-7.4,8.07,24.49,24.49,0,0,1-9.13,4.89,14.27,14.27,0,0,1-9.75-.69,15.34,15.34,0,0,1-7.51-7.48,34.54,34.54,0,0,1-3.25-11.65,73.45,73.45,0,0,1-.3-12.82,85.56,85.56,0,0,1,1.35-11.15c-2.61-.06-5.36-.25-8.24-.59a31.4,31.4,0,0,1-7.53-1.74,24.54,24.54,0,0,1,6.82-2C524.82,961.81,530.82,961.94,532,960.93Zm6.89,20.46a14,14,0,0,0,3.19-4.71,39.42,39.42,0,0,0,2.56-9.45l-3.76-.06a58.71,58.71,0,0,0-1.79,8.23A20.72,20.72,0,0,0,538.88,981.39Zm6.53-21.58c.17-4.2-.08-6.19-.73-6s-1.42,2.28-2.33,6.15C543.4,959.92,544.43,959.86,545.41,959.81Z"/><path d="M606.78,1003.44a13.36,13.36,0,0,1-6.69-1.19,11.62,11.62,0,0,1-5.94-6.48A20.54,20.54,0,0,1,593,983.16,29.78,29.78,0,0,1,598,972a19.92,19.92,0,0,1,8-6.9c3-1.27,5.29-1.62,7-1a8.39,8.39,0,0,1,3.7,2.22,5.49,5.49,0,0,1,1.32,2.74c0,.07,0,.38.08.93a2,2,0,0,1-1,1.65,1.4,1.4,0,0,1-.76.41,3.12,3.12,0,0,1-1.9-.77,3.34,3.34,0,0,0-2.1-.8,1.5,1.5,0,0,0-.68.29c-2,1.52-4.16,4.33-6.4,8.42s-3.11,7.74-2.57,11,1.84,4.76,3.87,4.59a7.55,7.55,0,0,0,5.38-3.2c2.07-2.63,4.26-7.25,6.46-13.84.7-2,1.36-3.9,2-5.62.77-1.91,1.71-3,2.68-3.11a6.17,6.17,0,0,1,1.42.2c.74.17,1.65,1.25,2.7,3.24.88,1.67,2,3.53,3.3,5.55a23.79,23.79,0,0,0,4.08,4.84,5.59,5.59,0,0,0,4,1.67c1.31-.1,2.81-1.09,4.48-3a22,22,0,0,0,3.91-6.23c.94-2.27,1.59-3.45,2-3.52a.36.36,0,0,1,.27,0c.47.29.83,1.49,1.08,3.59a20.24,20.24,0,0,1-.7,7.32,17.51,17.51,0,0,1-3.67,7.15,10.09,10.09,0,0,1-5.83,3.6,12.79,12.79,0,0,1-7.66-.81,15.89,15.89,0,0,1-5.42-4,18.83,18.83,0,0,1-3-4.26,23.93,23.93,0,0,1-4.18,9.92,23,23,0,0,1-8,7.59A17.57,17.57,0,0,1,606.78,1003.44Z"/><path d="M722.86,959c-.05.87-.14,1.79-.27,2.75a36.77,36.77,0,0,1-3.36,11.62c-1.69,3.44-4,5.23-6.76,5.34s-5.9-1.56-9.28-5A28.07,28.07,0,0,1,702,980a14.54,14.54,0,0,1-3.54,5.41c-3.57,3.47-7.1,5.11-10.52,4.91a13.22,13.22,0,0,1-9.05-4.47A26.57,26.57,0,0,1,673,975.29,33.77,33.77,0,0,1,671.75,962a10.83,10.83,0,0,1,1.45-4.35,6.47,6.47,0,0,1,2.79-2.68,2.84,2.84,0,0,1,3.18.61c1.05.89,2,2.76,2.63,5.51.22.94.44,2.34.71,4.11.33,2.19.76,4.51,1.26,7a27.71,27.71,0,0,0,2,6.26c.81,1.72,1.93,2.64,3.12,2.57a5.36,5.36,0,0,0,4.58-3.54,21.13,21.13,0,0,0,1.35-7.74c0-3.08-.07-6.25-.33-9.51-.07-1.31-.16-2.6-.26-3.87q-.15-4.38,1-5.81a2.19,2.19,0,0,1,2.93-.59,9,9,0,0,1,3.36,3.29,21.21,21.21,0,0,1,2.32,5.83c1.12,4,3.11,7,4.91,8.35s3.42,1.15,4.82-.56,2.65-4.86,3.72-9.43,1.62-7.17,1.7-7.8a3.91,3.91,0,0,1,2.07-2.94,3.39,3.39,0,0,1,3.21-.57,5.29,5.29,0,0,1,2.12,1.67,2.62,2.62,0,0,0,1,1c.42-5.07,1.9-8.81,4.47-11.25s6.41-3.34,11.65-2.81a9.43,9.43,0,0,1,6.17,3.48,12.3,12.3,0,0,1,2.7,6.06c.28,2.12-.19,3.7-1.39,4.73s-3.25.82-6.1-.66a12.58,12.58,0,0,1-2.49-2.16,15.46,15.46,0,0,0-1.77-1.71,2.33,2.33,0,0,0-1.64-.63,5.07,5.07,0,0,0-4,3.74,20.71,20.71,0,0,0-.6,7.54c.22,3,.53,6.09,1,9.23a71.93,71.93,0,0,1,1,10.45,7.7,7.7,0,0,1-5.92-.64,8.57,8.57,0,0,1-3.76-4.46c-.64-1.6-1.21-3.22-1.73-4.83s-1.14-3.37-1.79-5.07C723.07,959.48,723,959.23,722.86,959Z"/><path d="M819.58,910a68.4,68.4,0,0,1-.34,9.25c-.4,4.11-2,7.09-4.82,8.87a12.41,12.41,0,0,1-7.89,2.26,16,16,0,0,1-6.44-2,18.87,18.87,0,0,1-4.17-3.1,23.86,23.86,0,0,1-.87,10.76,23.07,23.07,0,0,1-5.27,9.77,17.73,17.73,0,0,1-4.53,3.14,13.62,13.62,0,0,1-6.79,1c-2.64-.2-5.21-1.63-7.69-4.27a17.53,17.53,0,0,1-3.07-4.75,26.53,26.53,0,0,1-1.66-7c-.4-3,.34-7.08,2.11-12.17a20.08,20.08,0,0,1,9.39-11.36,5.8,5.8,0,0,1,1.87-.57,5.62,5.62,0,0,1,3.62.65,5.41,5.41,0,0,1,2.13,2.18l.37.86a2,2,0,0,1-.39,1.87,1.62,1.62,0,0,1-.65.65,3,3,0,0,1-2-.14,3.34,3.34,0,0,0-2.26-.09,1.45,1.45,0,0,0-.55.5,21.94,21.94,0,0,0-3.29,7.91,35,35,0,0,0-.9,9.26,12.4,12.4,0,0,0,1.94,6c1.17,1.88,2.82,2.34,4.94,1.35a8.11,8.11,0,0,0,4.14-4.87c1.12-3.13,1.74-8.23,1.8-15.21,0-2.09.08-4.12.19-6,.11-2.05.67-3.34,1.58-3.81a5.46,5.46,0,0,1,1.41-.26c.77-.09,2,.65,3.61,2.2,1.37,1.3,3,2.71,4.91,4.2a23.46,23.46,0,0,0,5.75,3.38c1.93.76,3.5.15,4.67-1.82a21.57,21.57,0,0,0,2.62-7.14c.48-2.85.83-5.84,1.3-8.62s1-4.51,1.74-5.15a4.8,4.8,0,0,1,1.83-1.2,2.89,2.89,0,0,1,1.41-.08,2.1,2.1,0,0,1,1,.5,13.84,13.84,0,0,1,10.43-14.74c3.86-1,7.19-.95,9.73,0a14,14,0,0,1,6.2,4.25,37.08,37.08,0,0,1,4,5.88,20.32,20.32,0,0,0,3.23,4.53,3.17,3.17,0,0,0,3.93.57c1.38-.71,2.48-2.54,3.21-5.24a40.89,40.89,0,0,0,1.33-8.5c.29-4.61.81-7,1.63-7.18s2.07,2.14,3.62,7a21.94,21.94,0,0,1,.82,9.31,23.41,23.41,0,0,1-3,9.14,14.63,14.63,0,0,1-6.52,6.15,9.52,9.52,0,0,1-7.27.66,13.64,13.64,0,0,1-5.57-3.88,54.71,54.71,0,0,1-4.57-5.86,36.7,36.7,0,0,0-5-6.13A5,5,0,0,0,831,891.5a5.38,5.38,0,0,0-3.12,3.29,13,13,0,0,0-.41,6c.31,2.43,1.64,6.65,4.24,12,.89,1.84,1.77,3.66,2.41,5.37a6,6,0,0,1,.33,4.27c-.43,1.13-1.78,1.72-4,1.76a4.52,4.52,0,0,1-2.92-1,12.86,12.86,0,0,1-3-3.87c-1.08-1.88-2.08-3.79-3-5.71C821,912.51,820.32,911.28,819.58,910Z"/><path d="M865.44,847.27c.17-.8-1.42-4-2.13-6.76a37.51,37.51,0,0,1-1.16-8.14,9.44,9.44,0,0,1,1.68-6.28c1.19-1.51,3.36-1.94,6.53-1.31a10.2,10.2,0,0,1,4.81,3.13,35.69,35.69,0,0,1,4.77,6.42q4.63-4,7.73-6.43t3.57-2.3a3.35,3.35,0,0,1,1.72,4,14.45,14.45,0,0,1-3.27,5.59,53.21,53.21,0,0,1-6.14,6,74.63,74.63,0,0,1,5,13.34,27.09,27.09,0,0,1,.54,11.61c3.23,2.68,6.06,3.86,8.46,3.53a8.82,8.82,0,0,0,6.05-3.92,27.22,27.22,0,0,0,3.86-8.26,66.65,66.65,0,0,0,2-9.49c.42-3.1.65-5.68.81-7.62.12-1.58.68-2.1,1.58-1.47s1.89,2.57,2.76,5.7A43.05,43.05,0,0,1,916,854.68a41.3,41.3,0,0,1-1.17,11.06,25.4,25.4,0,0,1-4.5,9.6,15,15,0,0,1-8.37,5.51,15.46,15.46,0,0,1-10.65-1.28,34.12,34.12,0,0,1-9.7-7.25,72.4,72.4,0,0,1-8-10,87.37,87.37,0,0,1-5.66-9.71c-2.15,1.56-4.5,3.11-7,4.62a32.71,32.71,0,0,1-7.17,3.26A25.83,25.83,0,0,1,858,854.7C860.14,852.41,865.1,848.82,865.44,847.27Zm18,12a14.38,14.38,0,0,0-.26-5.73,39.06,39.06,0,0,0-3.64-9.11c-1.07.8-2.11,1.57-3.1,2.29a56.7,56.7,0,0,0,3.53,7.67A19.53,19.53,0,0,0,883.45,859.27ZM875.69,838q-3.62-5.16-4.2-4.28c-.4.59.22,2.7,1.82,6.34C874.12,839.38,874.91,838.69,875.69,838Z"/><path d="M182.47,692.54a403.89,403.89,0,0,1-45.87-159.9l-4,1a139.85,139.85,0,0,1-22,3.83,430,430,0,0,0,73,207.84c-.59-7-1-13.68-1.3-20C181.66,711,181.73,700.23,182.47,692.54Z"/><path class="cls-1" d="M135.51,504.27c20-5,40.06-10.26,59.92-15.63,4,22.75,8.63,45.6,13.86,68l.69,2.76c3.67,14.74,8.42,25.54,14.14,32.07,4.68,5.35,10.07,8,16.08,8a22.83,22.83,0,0,0,5.45-.7c16.06-4,21.8-21.33,17.06-51.53-3.81-24.33-7.92-48.64-12.23-72.29,22.23-4.69,45.51-10.06,69.24-16,19.37-4.81,32.38-12.19,38.7-21.94,3.45-5.48,4.8-10.68,4-15.61l-.5-2C359,407.8,348.67,402,331.09,402a119.11,119.11,0,0,0-21.15,2.16c-22.64,4.09-45.52,8.88-68.05,14.27-2.68-22.35-5.93-45.52-9.69-68.9-.59-3.83-1.32-7.49-2.16-10.86-3.44-13.87-8.94-23.24-16.27-27.8A20.51,20.51,0,0,0,202.5,307a15.4,15.4,0,0,0-3.69.45c-16.64,4.13-23.63,22.9-20.77,55.8,2.24,22.95,5,46.15,8.26,69C170.72,436.49,155,441.1,139.4,446q-9.61,3-19.2,6.11-4.41,1.44-8.39,3c-25.44,9.79-37.12,22.37-34.71,37.62l.5,2c2.54,10.23,10.9,15.37,24.94,15.37a67.4,67.4,0,0,0,6.75-.37,117,117,0,0,0,16.64-3Z"/><path d="M542.7,69a431.75,431.75,0,0,0-271.59,95.61c-75.46,60.73-129,145.85-150.71,239.68-1.53,6.56-2.88,13.19-4.09,19.85q14.22-4.61,28.57-8.93c.37-1.67.72-3.33,1.11-5q2.85-12.3,6.47-24.38,4.89-16.33,11.14-32.18c-.53-24.56,5-51,28.88-58.84q4.7-7.9,9.74-15.61A408.09,408.09,0,0,1,642.68,107.57a154.73,154.73,0,0,1,27.78-19.52A434.83,434.83,0,0,0,542.7,69Z"/><path d="M340.61,642.53A137.08,137.08,0,0,0,312.69,640c-2.35,0-4.77,0-7.24.12a210.22,210.22,0,0,0-45.13,6.58q-22.6,5.79-38.74,17t-19,28.46q-1.35,9.79-.38,32.3c0,.49,0,1,.07,1.51q1,22,4.68,49.61l-.64.26q-24.52,9.55-34.46,21.58a63.24,63.24,0,0,0,18.66,4.16q5.82.48,11.56.47c3,0,6-.09,9-.29a348,348,0,0,0,16.23,59.31q10.29,27.31,25.87,41.09,9.74,8.61,21.83,8.61a43.08,43.08,0,0,0,15.38-3.1q-5.25-23.6-13.66-52.62c-1.26-4.37-2.49-8.78-3.71-13.19q-5.84-21.18-11-43l1.46-.09a190.85,190.85,0,0,0,33.23-4.92q17.52-4.15,27.17-14t3.54-27.65c-.76-1.08-3.45-1.62-8-1.62a141.17,141.17,0,0,0-15.14,1.08,439.71,439.71,0,0,0-49.6,9.1q-4.55-28.94-.68-52.62,1.35-11.09,5.94-16.46T272.72,684c1.16-.32,2.38-.72,3.67-1.21q9.38-2.49,21.82-7.09a128.51,128.51,0,0,0,24.7-12.43,74.81,74.81,0,0,0,15.74-13.5,79.89,79.89,0,0,0,5.21-6.54C342.8,643,341.72,642.76,340.61,642.53Z"/><path d="M545.8,721.84a281.68,281.68,0,0,0-6.27-48.91c-.34-1.55-.68-3.09-1-4.63Q529.26,629,510.07,598q-14.73-23.79-34.9-37.79c-22.23,10.71-42.44,18.36-60.32,22.8-12.58,3.13-23.7,4.72-33.06,4.72a68.77,68.77,0,0,1-11.08-.85,164.18,164.18,0,0,0-15.17,21.57c-6.33,9.65-12.25,19.94-12.25,24.63l.5-.2-.06.18c.85.19,1.7.37,2.52.57l14.25,3.52L352,649.05a86.69,86.69,0,0,1-16.6,17.57q-1,6.54-1.47,13.31-.35,4.58-.49,9.27a254.85,254.85,0,0,0,1.44,35.5c.35,3.14.78,6.28,1.25,9.41,1.12,7.49,2.55,14.95,4.35,22.39q.94,3.93,2,7.85c1.42,5.2,3,10.24,4.72,15.19a204.62,204.62,0,0,0,25.13,50.28q19.67,28.29,46.59,39.87a135.44,135.44,0,0,0,30.39,3.77q21.93,0,38.54-9.1,27.31-14.94,41.52-46.33t16.27-70.89Q546.3,734.48,545.8,721.84Zm-50.13,27.4q-1,33.18-11.73,54.45-13.23,23.68-26.7,25.07a23.26,23.26,0,0,1-2.35.12q-12.19,0-23.39-13.27-12.25-14.54-21.76-38.69a291.4,291.4,0,0,1-14.8-51.6A252,252,0,0,1,390,673.75q.38-24.13,8.27-38.68,12.91-22,28.33-22a22.62,22.62,0,0,1,2.59.15q16.94,2,32.7,22.68t26.34,52.89Q496.68,716.07,495.67,749.24Z"/><path d="M994.77,631.55A126.89,126.89,0,0,0,966.9,592a141.11,141.11,0,0,0-18.39-14.92q-2.41-1.64-4.86-3.19a178.24,178.24,0,0,0-64.09-25.15,165.65,165.65,0,0,0-30.09-2.83,143.71,143.71,0,0,0-41.24,5.93q-14.58,4.47-18.84,12t-5.66,22.63a279.74,279.74,0,0,0-.58,40.33q1.13,23.7,5.16,53.86,1.65,12.4,3.54,23.87,7.2,43.86,17.64,74.21l.75,2q3.13,9.85,7.64,14.95a12.22,12.22,0,0,0,2.89,2.37c3.21,2,7.81,3.16,13.83,3.58,1.86.13,3.79.2,5.8.2,2.9,0,6-.16,9.17-.43a175.86,175.86,0,0,0,26.32-4.54,246.69,246.69,0,0,0,49.84-18.34A188.88,188.88,0,0,0,970.87,748q19.77-18.15,27.36-41.59Q1009.69,664.62,994.77,631.55Zm-41,38.59A80,80,0,0,1,936.06,718a112.59,112.59,0,0,1-39.76,32.42q-17,8.21-32.07,8.21a52.65,52.65,0,0,1-10.32-1q-6.67-2.5-12.15-23.36a429.28,429.28,0,0,1-9.39-48.66q-3.92-27.78-5.51-51.3t-.54-31.5q-1.43-12.59,10.31-16a47.17,47.17,0,0,1,13.12-1.69,86.94,86.94,0,0,1,16.55,1.77,160.5,160.5,0,0,1,35.42,11.39q17.49,7.9,27.79,18.12Q954.68,643.57,953.76,670.14Z"/><path d="M801,816.17c-11.65,10-21.36,17.53-21.72,17.81-69.26,49.55-150.86,75.7-236.53,75.7A405.87,405.87,0,0,1,287.79,820c2.58,10,5.27,19.82,8.06,29.49,1.14,4,2.23,7.81,3.29,11.62A432.22,432.22,0,0,0,542.7,936c92.27,0,180.1-28.51,254.4-82.48l.17-.12.27-.21c1.44-1,2.89-2.09,4.32-3.16a12.69,12.69,0,0,0,1.59-1.42c5.14-4.14,10.83-9.12,16.61-14.59C810.8,829.73,804.6,822.07,801,816.17Z"/><path d="M972.92,555.86a439.61,439.61,0,0,0,3.26-53.38c0-103.33-35.94-201.12-101.85-279.15A159.78,159.78,0,0,1,870,239l0,.06,0,0c-1.6,4.7-3.37,9.34-5.27,13.91,55.29,71.07,85.27,158,85.27,249.44a412.85,412.85,0,0,1-2.12,41.63L972.09,562C972.37,560,972.67,557.92,972.92,555.86Z"/></svg>